<svg version="1.1" xmlns="http://www.w3.org/2000/svg" xmlns:xlink="http://www.w3.org/1999/xlink" width="2036" height="1260"><defs/><g><g transform="translate(-62,10) scale(1,1)"><path fill="none" stroke="#a00000" d="M 72 0 L 2088 0 L 2088 1240 L 72 1240 L 72 0" stroke-miterlimit="10"/></g><g transform="translate(-62,10) scale(1,1)"><path fill="#fefed2" stroke="none" d="M 72 0 L 72 22 L 244.72998046875 22 L 255.72998046875 11 L 255.72998046875 0 L 72 0"/></g><g transform="translate(-62,10) scale(1,1)"><path fill="none" stroke="#a00000" d="M 72 0 L 72 22 L 244.72998046875 22 L 255.72998046875 11 L 255.72998046875 0 L 72 0 L 72 0" stroke-miterlimit="10"/></g><g transform="translate(-62,10) scale(1,1)"><g><path fill="none" stroke="none"/><text fill="#000000" stroke="none" font-family="Arial" font-size="13px" font-style="normal" font-weight="normal" text-decoration="none" x="96.72998046875" y="17.5">前后端分离的授权码模式</text></g></g><g transform="translate(-62,10) scale(1,1)"><g><path fill="none" stroke="none"/><text fill="#000000" stroke="none" font-family="Arial" font-size="13px" font-style="normal" font-weight="bold" text-decoration="none" x="77" y="17.5">sd</text></g></g><g transform="translate(-62,10) scale(1,1)"><rect fill="#C0C0C0" stroke="none" x="207" y="47" width="78.95361328125" height="39" opacity="0.2"/></g><g transform="translate(-62,10) scale(1,1)"><rect fill="#fefed2" stroke="none" x="200" y="40" width="78.95361328125" height="39"/></g><g transform="translate(-62,10) scale(1,1)"><path fill="none" stroke="#a00000" d="M 200 40 L 278.95361328125 40 L 278.95361328125 79 L 200 79 L 200 40 Z Z" stroke-miterlimit="10"/></g><g transform="translate(-62,10) scale(1,1)"><g><path fill="none" stroke="none"/><text fill="#000000" stroke="none" font-family="Arial" font-size="13px" font-style="normal" font-weight="bold" text-decoration="none" x="211.302734375" y="59.5">client后端</text></g></g><g transform="translate(-62,10) scale(1,1)"><path fill="none" stroke="#000000" d="M 240.5 80 L 240.5 1224" stroke-miterlimit="10" stroke-dasharray="3"/></g><g transform="translate(-62,10) scale(1,1)"><rect fill="#C0C0C0" stroke="none" x="303" y="47" width="159.080078125" height="39" opacity="0.2"/></g><g transform="translate(-62,10) scale(1,1)"><rect fill="#fefed2" stroke="none" x="296" y="40" width="159.080078125" height="39"/></g><g transform="translate(-62,10) scale(1,1)"><path fill="none" stroke="#a00000" d="M 296 40 L 455.080078125 40 L 455.080078125 79 L 296 79 L 296 40 Z Z" stroke-miterlimit="10"/></g><g transform="translate(-62,10) scale(1,1)"><g><path fill="none" stroke="none"/><text fill="#000000" stroke="none" font-family="Arial" font-size="13px" font-style="normal" font-weight="bold" text-decoration="none" x="311.939697265625" y="59.5">AuthorizationEndpoint</text></g></g><g transform="translate(-62,10) scale(1,1)"><path fill="none" stroke="#000000" d="M 376.5 80 L 376.5 1216" stroke-miterlimit="10" stroke-dasharray="3"/></g><g transform="translate(-62,10) scale(1,1)"><rect fill="#C0C0C0" stroke="none" x="607" y="47" width="182.25537109375" height="39" opacity="0.2"/></g><g transform="translate(-62,10) scale(1,1)"><rect fill="#fefed2" stroke="none" x="600" y="40" width="182.25537109375" height="39"/></g><g transform="translate(-62,10) scale(1,1)"><path fill="none" stroke="#a00000" d="M 600 40 L 782.25537109375 40 L 782.25537109375 79 L 600 79 L 600 40 Z Z" stroke-miterlimit="10"/></g><g transform="translate(-62,10) scale(1,1)"><g><path fill="none" stroke="none"/><text fill="#000000" stroke="none" font-family="Arial" font-size="13px" font-style="normal" font-weight="bold" text-decoration="none" x="616.225341796875" y="59.5">ExceptionTranslationFilter</text></g></g><g transform="translate(-62,10) scale(1,1)"><path fill="none" stroke="#000000" d="M 692.5 80 L 692.5 1208" stroke-miterlimit="10" stroke-dasharray="3"/></g><g transform="translate(-62,10) scale(1,1)"><rect fill="#C0C0C0" stroke="none" x="799" y="47" width="229.15185546875" height="39" opacity="0.2"/></g><g transform="translate(-62,10) scale(1,1)"><rect fill="#fefed2" stroke="none" x="792" y="40" width="229.15185546875" height="39"/></g><g transform="translate(-62,10) scale(1,1)"><path fill="none" stroke="#a00000" d="M 792 40 L 1021.15185546875 40 L 1021.15185546875 79 L 792 79 L 792 40 Z Z" stroke-miterlimit="10"/></g><g transform="translate(-62,10) scale(1,1)"><g><path fill="none" stroke="none"/><text fill="#000000" stroke="none" font-family="Arial" font-size="13px" font-style="normal" font-weight="bold" text-decoration="none" x="811.1865234375" y="59.5">LoginUrlAuthenticationEntryPoint</text></g></g><g transform="translate(-62,10) scale(1,1)"><path fill="none" stroke="#000000" d="M 907.5 80 L 907.5 1208" stroke-miterlimit="10" stroke-dasharray="3"/></g><g transform="translate(-62,10) scale(1,1)"><path fill="#fefed2" stroke="none" d="M 384 136 L 593.39208984375 136 L 603.39208984375 146 L 603.39208984375 184 L 384 184 L 384 136"/></g><g transform="translate(-62,10) scale(1,1)"><path fill="none" stroke="#a00000" d="M 384 136 L 593.39208984375 136 L 603.39208984375 146 L 603.39208984375 184 L 384 184 L 384 136 L 384 136" stroke-miterlimit="10"/></g><g transform="translate(-62,10) scale(1,1)"><path fill="none" stroke="#a00000" d="M 593.39208984375 136 L 593.39208984375 146 L 603.39208984375 146 L 593.39208984375 136" stroke-miterlimit="10"/></g><g transform="translate(-62,10) scale(1,1)"><g><path fill="none" stroke="none"/><text fill="#000000" stroke="none" font-family="Arial" font-size="13px" font-style="normal" font-weight="normal" text-decoration="none" x="389" y="154">InsufficientAuthenticationException</text></g></g><g transform="translate(-62,10) scale(1,1)"><path fill="none" stroke="#a00000" d="M 530 248 L 505 186" stroke-miterlimit="10" stroke-dasharray="3"/></g><g transform="translate(-62,10) scale(1,1)"><rect fill="#C0C0C0" stroke="none" x="1039" y="47" width="266.05712890625" height="39" opacity="0.2"/></g><g transform="translate(-62,10) scale(1,1)"><rect fill="#fefed2" stroke="none" x="1032" y="40" width="266.05712890625" height="39"/></g><g transform="translate(-62,10) scale(1,1)"><path fill="none" stroke="#a00000" d="M 1032 40 L 1298.05712890625 40 L 1298.05712890625 79 L 1032 79 L 1032 40 Z Z" stroke-miterlimit="10"/></g><g transform="translate(-62,10) scale(1,1)"><g><path fill="none" stroke="none"/><text fill="#000000" stroke="none" font-family="Arial" font-size="13px" font-style="normal" font-weight="bold" text-decoration="none" x="1050.865966796875" y="59.5">UsernamePasswordAuthenticationFilter</text></g></g><g transform="translate(-62,10) scale(1,1)"><path fill="none" stroke="#000000" d="M 1166.5 80 L 1166.5 1216" stroke-miterlimit="10" stroke-dasharray="3"/></g><g transform="translate(-62,10) scale(1,1)"><rect fill="#C0C0C0" stroke="none" x="1311" y="47" width="125.20263671875" height="39" opacity="0.2"/></g><g transform="translate(-62,10) scale(1,1)"><rect fill="#fefed2" stroke="none" x="1304" y="40" width="125.20263671875" height="39"/></g><g transform="translate(-62,10) scale(1,1)"><path fill="none" stroke="#a00000" d="M 1304 40 L 1429.20263671875 40 L 1429.20263671875 79 L 1304 79 L 1304 40 Z Z" stroke-miterlimit="10"/></g><g transform="translate(-62,10) scale(1,1)"><g><path fill="none" stroke="none"/><text fill="#000000" stroke="none" font-family="Arial" font-size="13px" font-style="normal" font-weight="bold" text-decoration="none" x="1316.74365234375" y="59.5">ProviderManager</text></g></g><g transform="translate(-62,10) scale(1,1)"><path fill="none" stroke="#000000" d="M 1367.5 80 L 1367.5 1216" stroke-miterlimit="10" stroke-dasharray="3"/></g><g transform="translate(-62,10) scale(1,1)"><rect fill="#C0C0C0" stroke="none" x="1447" y="47" width="187.29541015625" height="39" opacity="0.2"/></g><g transform="translate(-62,10) scale(1,1)"><rect fill="#fefed2" stroke="none" x="1440" y="40" width="187.29541015625" height="39"/></g><g transform="translate(-62,10) scale(1,1)"><path fill="none" stroke="#a00000" d="M 1440 40 L 1627.29541015625 40 L 1627.29541015625 79 L 1440 79 L 1440 40 Z Z" stroke-miterlimit="10"/></g><g transform="translate(-62,10) scale(1,1)"><g><path fill="none" stroke="none"/><text fill="#000000" stroke="none" font-family="Arial" font-size="13px" font-style="normal" font-weight="bold" text-decoration="none" x="1456.32373046875" y="59.5">DaoAuthenticationProvider</text></g></g><g transform="translate(-62,10) scale(1,1)"><path fill="none" stroke="#000000" d="M 1534.5 80 L 1534.5 1208" stroke-miterlimit="10" stroke-dasharray="3"/></g><g transform="translate(-62,10) scale(1,1)"><rect fill="#C0C0C0" stroke="none" x="1639" y="47" width="339.53125" height="39" opacity="0.2"/></g><g transform="translate(-62,10) scale(1,1)"><rect fill="#fefed2" stroke="none" x="1632" y="40" width="339.53125" height="39"/></g><g transform="translate(-62,10) scale(1,1)"><path fill="none" stroke="#a00000" d="M 1632 40 L 1971.53125 40 L 1971.53125 79 L 1632 79 L 1632 40 Z Z" stroke-miterlimit="10"/></g><g transform="translate(-62,10) scale(1,1)"><g><path fill="none" stroke="none"/><text fill="#000000" stroke="none" font-family="Arial" font-size="13px" font-style="normal" font-weight="bold" text-decoration="none" x="1652.294189453125" y="59.5">SavedRequestAwareAuthenticationSuccessHandler</text></g></g><g transform="translate(-62,10) scale(1,1)"><path fill="none" stroke="#000000" d="M 1802.5 80 L 1802.5 1208" stroke-miterlimit="10" stroke-dasharray="3"/></g><g transform="translate(-62,10) scale(1,1)"><rect fill="#C0C0C0" stroke="none" x="79" y="47" width="78.95361328125" height="39" opacity="0.2"/></g><g transform="translate(-62,10) scale(1,1)"><rect fill="#fefed2" stroke="none" x="72" y="40" width="78.95361328125" height="39"/></g><g transform="translate(-62,10) scale(1,1)"><path fill="none" stroke="#a00000" d="M 72 40 L 150.95361328125 40 L 150.95361328125 79 L 72 79 L 72 40 Z Z" stroke-miterlimit="10"/></g><g transform="translate(-62,10) scale(1,1)"><g><path fill="none" stroke="none"/><text fill="#000000" stroke="none" font-family="Arial" font-size="13px" font-style="normal" font-weight="bold" text-decoration="none" x="83.302734375" y="59.5">client前端</text></g></g><g transform="translate(-62,10) scale(1,1)"><path fill="none" stroke="#000000" d="M 112.5 80 L 112.5 1224" stroke-miterlimit="10" stroke-dasharray="3"/></g><g transform="translate(-62,10) scale(1,1)"><path fill="#fefed2" stroke="none" d="M 112 256 L 588.279296875 256 L 598.279296875 266 L 598.279296875 279 L 112 279 L 112 256"/></g><g transform="translate(-62,10) scale(1,1)"><path fill="none" stroke="#a00000" d="M 112 256 L 588.279296875 256 L 598.279296875 266 L 598.279296875 279 L 112 279 L 112 256 L 112 256" stroke-miterlimit="10"/></g><g transform="translate(-62,10) scale(1,1)"><path fill="none" stroke="#a00000" d="M 588.279296875 256 L 588.279296875 266 L 598.279296875 266 L 588.279296875 256" stroke-miterlimit="10"/></g><g transform="translate(-62,10) scale(1,1)"><g><path fill="none" stroke="none"/><text fill="#000000" stroke="none" font-family="Arial" font-size="13px" font-style="normal" font-weight="normal" text-decoration="none" x="117" y="274">/oauth/authorize?response_type=code&amp;client_id=xxx$redirect_uri=xxx&amp;state=xxx</text></g></g><g transform="translate(-62,10) scale(1,1)"><path fill="none" stroke="#a00000" d="M 240 208 L 330 255" stroke-miterlimit="10" stroke-dasharray="3"/></g><g transform="translate(-62,10) scale(1,1)"><path fill="#fefed2" stroke="none" d="M 792 632 L 1312.73193359375 632 L 1322.73193359375 642 L 1322.73193359375 680 L 792 680 L 792 632"/></g><g transform="translate(-62,10) scale(1,1)"><path fill="none" stroke="#a00000" d="M 792 632 L 1312.73193359375 632 L 1322.73193359375 642 L 1322.73193359375 680 L 792 680 L 792 632 L 792 632" stroke-miterlimit="10"/></g><g transform="translate(-62,10) scale(1,1)"><path fill="none" stroke="#a00000" d="M 1312.73193359375 632 L 1312.73193359375 642 L 1322.73193359375 642 L 1312.73193359375 632" stroke-miterlimit="10"/></g><g transform="translate(-62,10) scale(1,1)"><g><path fill="none" stroke="none"/><text fill="#000000" stroke="none" font-family="Arial" font-size="13px" font-style="normal" font-weight="normal" text-decoration="none" x="797" y="650">/oauth/authorize?response_type=code&amp;client_id=xxx$redirect_uri=xxx&amp;state=xxx</text></g></g><g transform="translate(-62,10) scale(1,1)"><path fill="none" stroke="#a00000" d="M 957 712 L 1011 682" stroke-miterlimit="10" stroke-dasharray="3"/></g><g transform="translate(-62,10) scale(1,1)"><path fill="#fefed2" stroke="none" d="M 152 848 L 333.42431640625 848 L 343.42431640625 858 L 343.42431640625 896 L 152 896 L 152 848"/></g><g transform="translate(-62,10) scale(1,1)"><path fill="none" stroke="#a00000" d="M 152 848 L 333.42431640625 848 L 343.42431640625 858 L 343.42431640625 896 L 152 896 L 152 848 L 152 848" stroke-miterlimit="10"/></g><g transform="translate(-62,10) scale(1,1)"><path fill="none" stroke="#a00000" d="M 333.42431640625 848 L 333.42431640625 858 L 343.42431640625 858 L 333.42431640625 848" stroke-miterlimit="10"/></g><g transform="translate(-62,10) scale(1,1)"><g><path fill="none" stroke="none"/><text fill="#000000" stroke="none" font-family="Arial" font-size="13px" font-style="normal" font-weight="normal" text-decoration="none" x="157" y="866">callback?code=xxx&amp;state=xxx</text></g></g><g transform="translate(-62,10) scale(1,1)"><path fill="none" stroke="#a00000" d="M 244 808 L 246 847" stroke-miterlimit="10" stroke-dasharray="3"/></g><g transform="translate(-62,10) scale(1,1)"><rect fill="#C0C0C0" stroke="none" x="487" y="47" width="112.63427734375" height="39" opacity="0.2"/></g><g transform="translate(-62,10) scale(1,1)"><rect fill="#fefed2" stroke="none" x="480" y="40" width="112.63427734375" height="39"/></g><g transform="translate(-62,10) scale(1,1)"><path fill="none" stroke="#a00000" d="M 480 40 L 592.63427734375 40 L 592.63427734375 79 L 480 79 L 480 40 Z Z" stroke-miterlimit="10"/></g><g transform="translate(-62,10) scale(1,1)"><g><path fill="none" stroke="none"/><text fill="#000000" stroke="none" font-family="Arial" font-size="13px" font-style="normal" font-weight="bold" text-decoration="none" x="493.311767578125" y="59.5">TokenEndpoint</text></g></g><g transform="translate(-62,10) scale(1,1)"><path fill="none" stroke="#000000" d="M 537.5 80 L 537.5 1224" stroke-miterlimit="10" stroke-dasharray="3"/></g><g transform="translate(-62,10) scale(1,1)"><path fill="none" stroke="#a00000" d="M 112 106 L 233 106" stroke-miterlimit="10"/></g><g transform="translate(-62,10) scale(1,1)"><path fill="#a00000" stroke="none" d="M 222.83732514237585 110.20951775601598 L 233 106 L 222.83732514237585 101.79048224398402"/></g><g transform="translate(-62,10) scale(1,1)"><path fill="none" stroke="#a00000" d="M 222.83732514237585 110.20951775601598 L 233 106 L 222.83732514237585 101.79048224398402 L 222.83732514237585 110.20951775601598" stroke-miterlimit="10"/></g><g transform="translate(-62,10) scale(1,1)"><g><path fill="none" stroke="none"/><text fill="#000000" stroke="none" font-family="Arial" font-size="13px" font-style="normal" font-weight="normal" text-decoration="none" x="97.5" y="102.5">1 : 判断没有登录，请求url</text></g></g><g transform="translate(-62,10) scale(1,1)"><rect fill="#fefed2" stroke="none" x="233" y="106" width="13" height="28"/></g><g transform="translate(-62,10) scale(1,1)"><path fill="none" stroke="#a00000" d="M 233 106 L 246 106 L 246 134 L 233 134 L 233 106 Z Z" stroke-miterlimit="10"/></g><g transform="translate(-62,10) scale(1,1)"><path fill="none" stroke="#a00000" d="M 240 160 L 112 160" stroke-miterlimit="10" stroke-dasharray="3"/></g><g transform="translate(-62,10) scale(1,1)"><path fill="none" stroke="#a00000" d="M 122.16267485762415 155.790482243984 L 112 160 L 122.16267485762415 164.209517756016" stroke-miterlimit="10"/></g><g transform="translate(-62,10) scale(1,1)"><g><path fill="none" stroke="none"/><text fill="#000000" stroke="none" font-family="Arial" font-size="13px" font-style="normal" font-weight="normal" text-decoration="none" x="117" y="176.5">2 : 返回authorize url</text></g></g><g transform="translate(-62,10) scale(1,1)"><path fill="none" stroke="#a00000" d="M 112 208 L 369 208" stroke-miterlimit="10"/></g><g transform="translate(-62,10) scale(1,1)"><path fill="#a00000" stroke="none" d="M 358.83732514237585 212.209517756016 L 369 208 L 358.83732514237585 203.790482243984"/></g><g transform="translate(-62,10) scale(1,1)"><path fill="none" stroke="#a00000" d="M 358.83732514237585 212.209517756016 L 369 208 L 358.83732514237585 203.790482243984 L 358.83732514237585 212.209517756016" stroke-miterlimit="10"/></g><g transform="translate(-62,10) scale(1,1)"><g><path fill="none" stroke="none"/><text fill="#000000" stroke="none" font-family="Arial" font-size="13px" font-style="normal" font-weight="normal" text-decoration="none" x="137.5" y="204.5">3 : 记录初始访问的visit url,发送请求</text></g></g><g transform="translate(-62,10) scale(1,1)"><rect fill="#fefed2" stroke="none" x="369" y="208" width="13" height="28"/></g><g transform="translate(-62,10) scale(1,1)"><path fill="none" stroke="#a00000" d="M 369 208 L 382 208 L 382 236 L 369 236 L 369 208 Z Z" stroke-miterlimit="10"/></g><g transform="translate(-62,10) scale(1,1)"><path fill="none" stroke="#a00000" d="M 376 248 L 685 248" stroke-miterlimit="10"/></g><g transform="translate(-62,10) scale(1,1)"><path fill="#a00000" stroke="none" d="M 674.8373251423759 252.209517756016 L 685 248 L 674.8373251423758 243.790482243984"/></g><g transform="translate(-62,10) scale(1,1)"><path fill="none" stroke="#a00000" d="M 674.8373251423759 252.209517756016 L 685 248 L 674.8373251423758 243.790482243984 L 674.8373251423759 252.209517756016" stroke-miterlimit="10"/></g><g transform="translate(-62,10) scale(1,1)"><g><path fill="none" stroke="none"/><text fill="#000000" stroke="none" font-family="Arial" font-size="13px" font-style="normal" font-weight="normal" text-decoration="none" x="462.5" y="244.5">4 : 没有登录，抛出异常</text></g></g><g transform="translate(-62,10) scale(1,1)"><rect fill="#fefed2" stroke="none" x="685" y="248" width="13" height="28"/></g><g transform="translate(-62,10) scale(1,1)"><path fill="none" stroke="#a00000" d="M 685 248 L 698 248 L 698 276 L 685 276 L 685 248 Z Z" stroke-miterlimit="10"/></g><g transform="translate(-62,10) scale(1,1)"><path fill="none" stroke="#a00000" d="M 698 248 L 900 248" stroke-miterlimit="10"/></g><g transform="translate(-62,10) scale(1,1)"><path fill="#a00000" stroke="none" d="M 889.8373251423759 252.209517756016 L 900 248 L 889.8373251423758 243.790482243984"/></g><g transform="translate(-62,10) scale(1,1)"><path fill="none" stroke="#a00000" d="M 889.8373251423759 252.209517756016 L 900 248 L 889.8373251423758 243.790482243984 L 889.8373251423759 252.209517756016" stroke-miterlimit="10"/></g><g transform="translate(-62,10) scale(1,1)"><g><path fill="none" stroke="none"/><text fill="#000000" stroke="none" font-family="Arial" font-size="13px" font-style="normal" font-weight="normal" text-decoration="none" x="666.5" y="228.5">5 : 解析异常，委托相应的处理异常处理类处理</text></g></g><g transform="translate(-62,10) scale(1,1)"><rect fill="#fefed2" stroke="none" x="900" y="248" width="13" height="28"/></g><g transform="translate(-62,10) scale(1,1)"><path fill="none" stroke="#a00000" d="M 900 248 L 913 248 L 913 276 L 900 276 L 900 248 Z Z" stroke-miterlimit="10"/></g><g transform="translate(-62,10) scale(1,1)"><path fill="none" stroke="#a00000" d="M 907 321 L 112 321" stroke-miterlimit="10" stroke-dasharray="3"/></g><g transform="translate(-62,10) scale(1,1)"><path fill="none" stroke="#a00000" d="M 122.16267485762415 316.790482243984 L 112 321 L 122.16267485762415 325.209517756016" stroke-miterlimit="10"/></g><g transform="translate(-62,10) scale(1,1)"><g><path fill="none" stroke="none"/><text fill="#000000" stroke="none" font-family="Arial" font-size="13px" font-style="normal" font-weight="normal" text-decoration="none" x="427.193115234375" y="337.5">6 : 重定向到配置的登录页面</text></g></g><g transform="translate(-62,10) scale(1,1)"><path fill="none" stroke="#a00000" d="M 112 360 L 142 360 L 142 380 L 118 380" stroke-miterlimit="10"/></g><g transform="translate(-62,10) scale(1,1)"><path fill="#a00000" stroke="none" d="M 128.16267485762415 375.790482243984 L 118 380 L 128.16267485762415 384.209517756016"/></g><g transform="translate(-62,10) scale(1,1)"><path fill="none" stroke="#a00000" d="M 128.16267485762415 375.790482243984 L 118 380 L 128.16267485762415 384.209517756016 L 128.16267485762415 375.790482243984" stroke-miterlimit="10"/></g><g transform="translate(-62,10) scale(1,1)"><g><path fill="none" stroke="none"/><text fill="#000000" stroke="none" font-family="Arial" font-size="13px" font-style="normal" font-weight="normal" text-decoration="none" x="102.693115234375" y="375.5">7 : 显示登录页面</text></g></g><g transform="translate(-62,10) scale(1,1)"><rect fill="#fefed2" stroke="none" x="105" y="380" width="13" height="28"/></g><g transform="translate(-62,10) scale(1,1)"><path fill="none" stroke="#a00000" d="M 105 380 L 118 380 L 118 408 L 105 408 L 105 380 Z Z" stroke-miterlimit="10"/></g><g transform="translate(-62,10) scale(1,1)"><path fill="none" stroke="#a00000" d="M 112 456 L 1159 456" stroke-miterlimit="10"/></g><g transform="translate(-62,10) scale(1,1)"><path fill="#a00000" stroke="none" d="M 1148.837325142376 460.209517756016 L 1159 456 L 1148.837325142376 451.790482243984"/></g><g transform="translate(-62,10) scale(1,1)"><path fill="none" stroke="#a00000" d="M 1148.837325142376 460.209517756016 L 1159 456 L 1148.837325142376 451.790482243984 L 1148.837325142376 460.209517756016" stroke-miterlimit="10"/></g><g transform="translate(-62,10) scale(1,1)"><g><path fill="none" stroke="none"/><text fill="#000000" stroke="none" font-family="Arial" font-size="13px" font-style="normal" font-weight="normal" text-decoration="none" x="567.114990234375" y="452.5">8 : 输入用户名密码登录</text></g></g><g transform="translate(-62,10) scale(1,1)"><rect fill="#fefed2" stroke="none" x="1159" y="456" width="13" height="28"/></g><g transform="translate(-62,10) scale(1,1)"><path fill="none" stroke="#a00000" d="M 1159 456 L 1172 456 L 1172 484 L 1159 484 L 1159 456 Z Z" stroke-miterlimit="10"/></g><g transform="translate(-62,10) scale(1,1)"><path fill="none" stroke="#a00000" d="M 1172 464 L 1360 464" stroke-miterlimit="10"/></g><g transform="translate(-62,10) scale(1,1)"><path fill="#a00000" stroke="none" d="M 1349.837325142376 468.209517756016 L 1360 464 L 1349.837325142376 459.790482243984"/></g><g transform="translate(-62,10) scale(1,1)"><path fill="none" stroke="#a00000" d="M 1349.837325142376 468.209517756016 L 1360 464 L 1349.837325142376 459.790482243984 L 1349.837325142376 468.209517756016" stroke-miterlimit="10"/></g><g transform="translate(-62,10) scale(1,1)"><g><path fill="none" stroke="none"/><text fill="#000000" stroke="none" font-family="Arial" font-size="13px" font-style="normal" font-weight="normal" text-decoration="none" x="1230.489501953125" y="460.5">9 : 登录验证</text></g></g><g transform="translate(-62,10) scale(1,1)"><rect fill="#fefed2" stroke="none" x="1360" y="464" width="13" height="28"/></g><g transform="translate(-62,10) scale(1,1)"><path fill="none" stroke="#a00000" d="M 1360 464 L 1373 464 L 1373 492 L 1360 492 L 1360 464 Z Z" stroke-miterlimit="10"/></g><g transform="translate(-62,10) scale(1,1)"><path fill="none" stroke="#a00000" d="M 1373 472 L 1527 472" stroke-miterlimit="10"/></g><g transform="translate(-62,10) scale(1,1)"><path fill="#a00000" stroke="none" d="M 1516.837325142376 476.209517756016 L 1527 472 L 1516.837325142376 467.790482243984"/></g><g transform="translate(-62,10) scale(1,1)"><path fill="none" stroke="#a00000" d="M 1516.837325142376 476.209517756016 L 1527 472 L 1516.837325142376 467.790482243984 L 1516.837325142376 476.209517756016" stroke-miterlimit="10"/></g><g transform="translate(-62,10) scale(1,1)"><g><path fill="none" stroke="none"/><text fill="#000000" stroke="none" font-family="Arial" font-size="13px" font-style="normal" font-weight="normal" text-decoration="none" x="1385.5" y="468.5">10 : 委托处理登录验证</text></g></g><g transform="translate(-62,10) scale(1,1)"><rect fill="#fefed2" stroke="none" x="1527" y="472" width="13" height="28"/></g><g transform="translate(-62,10) scale(1,1)"><path fill="none" stroke="#a00000" d="M 1527 472 L 1540 472 L 1540 500 L 1527 500 L 1527 472 Z Z" stroke-miterlimit="10"/></g><g transform="translate(-62,10) scale(1,1)"><path fill="none" stroke="#a00000" d="M 1534 520 L 1367 520" stroke-miterlimit="10" stroke-dasharray="3"/></g><g transform="translate(-62,10) scale(1,1)"><path fill="none" stroke="#a00000" d="M 1377.162674857624 515.790482243984 L 1367 520 L 1377.162674857624 524.209517756016" stroke-miterlimit="10"/></g><g transform="translate(-62,10) scale(1,1)"><g><path fill="none" stroke="none"/><text fill="#000000" stroke="none" font-family="Arial" font-size="13px" font-style="normal" font-weight="normal" text-decoration="none" x="1397.5" y="536.5">11 : 返回验证结果</text></g></g><g transform="translate(-62,10) scale(1,1)"><path fill="none" stroke="#a00000" d="M 1367 545 L 1166 545" stroke-miterlimit="10" stroke-dasharray="3"/></g><g transform="translate(-62,10) scale(1,1)"><path fill="none" stroke="#a00000" d="M 1176.162674857624 540.790482243984 L 1166 545 L 1176.162674857624 549.209517756016" stroke-miterlimit="10"/></g><g transform="translate(-62,10) scale(1,1)"><g><path fill="none" stroke="none"/><text fill="#000000" stroke="none" font-family="Arial" font-size="13px" font-style="normal" font-weight="normal" text-decoration="none" x="1213.5" y="561.5">12 : 返回验证结果</text></g></g><g transform="translate(-62,10) scale(1,1)"><path fill="none" stroke="#a00000" d="M 1166 613 L 1795 613" stroke-miterlimit="10"/></g><g transform="translate(-62,10) scale(1,1)"><path fill="#a00000" stroke="none" d="M 1784.837325142376 617.209517756016 L 1795 613 L 1784.837325142376 608.790482243984"/></g><g transform="translate(-62,10) scale(1,1)"><path fill="none" stroke="#a00000" d="M 1784.837325142376 617.209517756016 L 1795 613 L 1784.837325142376 608.790482243984 L 1784.837325142376 617.209517756016" stroke-miterlimit="10"/></g><g transform="translate(-62,10) scale(1,1)"><g><path fill="none" stroke="none"/><text fill="#000000" stroke="none" font-family="Arial" font-size="13px" font-style="normal" font-weight="normal" text-decoration="none" x="1375.5" y="609.5">13 : 验证成功，委托successHandler</text></g></g><g transform="translate(-62,10) scale(1,1)"><rect fill="#fefed2" stroke="none" x="1795" y="613" width="13" height="28"/></g><g transform="translate(-62,10) scale(1,1)"><path fill="none" stroke="#a00000" d="M 1795 613 L 1808 613 L 1808 641 L 1795 641 L 1795 613 Z Z" stroke-miterlimit="10"/></g><g transform="translate(-62,10) scale(1,1)"><path fill="none" stroke="#a00000" d="M 1802 712 L 112 712" stroke-miterlimit="10" stroke-dasharray="3"/></g><g transform="translate(-62,10) scale(1,1)"><path fill="none" stroke="#a00000" d="M 122.16267485762415 707.790482243984 L 112 712 L 122.16267485762415 716.209517756016" stroke-miterlimit="10"/></g><g transform="translate(-62,10) scale(1,1)"><g><path fill="none" stroke="none"/><text fill="#000000" stroke="none" font-family="Arial" font-size="13px" font-style="normal" font-weight="normal" text-decoration="none" x="892.607666015625" y="732.5">14 : 发送重定向请求</text></g></g><g transform="translate(-62,10) scale(1,1)"><path fill="none" stroke="#a00000" d="M 112 752 L 369 752" stroke-miterlimit="10"/></g><g transform="translate(-62,10) scale(1,1)"><path fill="#a00000" stroke="none" d="M 358.83732514237585 756.209517756016 L 369 752 L 358.83732514237585 747.790482243984"/></g><g transform="translate(-62,10) scale(1,1)"><path fill="none" stroke="#a00000" d="M 358.83732514237585 756.209517756016 L 369 752 L 358.83732514237585 747.790482243984 L 358.83732514237585 756.209517756016" stroke-miterlimit="10"/></g><g transform="translate(-62,10) scale(1,1)"><g><path fill="none" stroke="none"/><text fill="#000000" stroke="none" font-family="Arial" font-size="13px" font-style="normal" font-weight="normal" text-decoration="none" x="201.489501953125" y="748.5">15 : 重定向到</text></g></g><g transform="translate(-62,10) scale(1,1)"><rect fill="#fefed2" stroke="none" x="369" y="752" width="13" height="28"/></g><g transform="translate(-62,10) scale(1,1)"><path fill="none" stroke="#a00000" d="M 369 752 L 382 752 L 382 780 L 369 780 L 369 752 Z Z" stroke-miterlimit="10"/></g><g transform="translate(-62,10) scale(1,1)"><path fill="none" stroke="#a00000" d="M 376 808 L 112 808" stroke-miterlimit="10" stroke-dasharray="3"/></g><g transform="translate(-62,10) scale(1,1)"><path fill="none" stroke="#a00000" d="M 122.16267485762415 803.790482243984 L 112 808 L 122.16267485762415 812.209517756016" stroke-miterlimit="10"/></g><g transform="translate(-62,10) scale(1,1)"><g><path fill="none" stroke="none"/><text fill="#000000" stroke="none" font-family="Arial" font-size="13px" font-style="normal" font-weight="normal" text-decoration="none" x="105.5" y="824.5">16 : 生成code，根据redirect_uri发送重定向请求</text></g></g><g transform="translate(-62,10) scale(1,1)"><path fill="none" stroke="#a00000" d="M 112 944 L 142 944 L 142 964 L 118 964" stroke-miterlimit="10"/></g><g transform="translate(-62,10) scale(1,1)"><path fill="#a00000" stroke="none" d="M 128.16267485762415 959.790482243984 L 118 964 L 128.16267485762415 968.209517756016"/></g><g transform="translate(-62,10) scale(1,1)"><path fill="none" stroke="#a00000" d="M 128.16267485762415 959.790482243984 L 118 964 L 128.16267485762415 968.209517756016 L 128.16267485762415 959.790482243984" stroke-miterlimit="10"/></g><g transform="translate(-62,10) scale(1,1)"><g><path fill="none" stroke="none"/><text fill="#000000" stroke="none" font-family="Arial" font-size="13px" font-style="normal" font-weight="normal" text-decoration="none" x="85.5" y="959.5">17 : 重定向，获取code</text></g></g><g transform="translate(-62,10) scale(1,1)"><rect fill="#fefed2" stroke="none" x="105" y="964" width="13" height="28"/></g><g transform="translate(-62,10) scale(1,1)"><path fill="none" stroke="#a00000" d="M 105 964 L 118 964 L 118 992 L 105 992 L 105 964 Z Z" stroke-miterlimit="10"/></g><g transform="translate(-62,10) scale(1,1)"><path fill="none" stroke="#a00000" d="M 112 1000 L 233 1000" stroke-miterlimit="10"/></g><g transform="translate(-62,10) scale(1,1)"><path fill="#a00000" stroke="none" d="M 222.83732514237585 1004.209517756016 L 233 1000 L 222.83732514237585 995.790482243984"/></g><g transform="translate(-62,10) scale(1,1)"><path fill="none" stroke="#a00000" d="M 222.83732514237585 1004.209517756016 L 233 1000 L 222.83732514237585 995.790482243984 L 222.83732514237585 1004.209517756016" stroke-miterlimit="10"/></g><g transform="translate(-62,10) scale(1,1)"><g><path fill="none" stroke="none"/><text fill="#000000" stroke="none" font-family="Arial" font-size="13px" font-style="normal" font-weight="normal" text-decoration="none" x="132.39453125" y="996.5">18 : 携带code</text></g></g><g transform="translate(-62,10) scale(1,1)"><rect fill="#fefed2" stroke="none" x="233" y="1000" width="13" height="28"/></g><g transform="translate(-62,10) scale(1,1)"><path fill="none" stroke="#a00000" d="M 233 1000 L 246 1000 L 246 1028 L 233 1028 L 233 1000 Z Z" stroke-miterlimit="10"/></g><g transform="translate(-62,10) scale(1,1)"><path fill="none" stroke="#a00000" d="M 246 1008 L 530 1008" stroke-miterlimit="10"/></g><g transform="translate(-62,10) scale(1,1)"><path fill="#a00000" stroke="none" d="M 519.8373251423759 1012.209517756016 L 530 1008 L 519.8373251423758 1003.790482243984"/></g><g transform="translate(-62,10) scale(1,1)"><path fill="none" stroke="#a00000" d="M 519.8373251423759 1012.209517756016 L 530 1008 L 519.8373251423758 1003.790482243984 L 519.8373251423759 1012.209517756016" stroke-miterlimit="10"/></g><g transform="translate(-62,10) scale(1,1)"><g><path fill="none" stroke="none"/><text fill="#000000" stroke="none" font-family="Arial" font-size="13px" font-style="normal" font-weight="normal" text-decoration="none" x="333.5" y="1004.5">19 : 请求token信息</text></g></g><g transform="translate(-62,10) scale(1,1)"><rect fill="#fefed2" stroke="none" x="530" y="1008" width="13" height="28"/></g><g transform="translate(-62,10) scale(1,1)"><path fill="none" stroke="#a00000" d="M 530 1008 L 543 1008 L 543 1036 L 530 1036 L 530 1008 Z Z" stroke-miterlimit="10"/></g><g transform="translate(-62,10) scale(1,1)"><path fill="none" stroke="#a00000" d="M 537 1064 L 240 1064" stroke-miterlimit="10" stroke-dasharray="3"/></g><g transform="translate(-62,10) scale(1,1)"><path fill="none" stroke="#a00000" d="M 250.16267485762415 1059.7904822439841 L 240 1064 L 250.16267485762415 1068.2095177560159" stroke-miterlimit="10"/></g><g transform="translate(-62,10) scale(1,1)"><g><path fill="none" stroke="none"/><text fill="#000000" stroke="none" font-family="Arial" font-size="13px" font-style="normal" font-weight="normal" text-decoration="none" x="293.5" y="1080.5">20 : 验证成功，生成token并返回</text></g></g><g transform="translate(-62,10) scale(1,1)"><path fill="none" stroke="#a00000" d="M 240 1097 L 112 1097" stroke-miterlimit="10" stroke-dasharray="3"/></g><g transform="translate(-62,10) scale(1,1)"><path fill="none" stroke="#a00000" d="M 122.16267485762415 1092.7904822439841 L 112 1097 L 122.16267485762415 1101.2095177560159" stroke-miterlimit="10"/></g><g transform="translate(-62,10) scale(1,1)"><g><path fill="none" stroke="none"/><text fill="#000000" stroke="none" font-family="Arial" font-size="13px" font-style="normal" font-weight="normal" text-decoration="none" x="133.5" y="1113.5">21 : 返回token</text></g></g><g transform="translate(-62,10) scale(1,1)"><path fill="none" stroke="#a00000" d="M 112 1153 L 233 1153" stroke-miterlimit="10"/></g><g transform="translate(-62,10) scale(1,1)"><path fill="#a00000" stroke="none" d="M 222.83732514237585 1157.2095177560159 L 233 1153 L 222.83732514237585 1148.7904822439841"/></g><g transform="translate(-62,10) scale(1,1)"><path fill="none" stroke="#a00000" d="M 222.83732514237585 1157.2095177560159 L 233 1153 L 222.83732514237585 1148.7904822439841 L 222.83732514237585 1157.2095177560159" stroke-miterlimit="10"/></g><g transform="translate(-62,10) scale(1,1)"><g><path fill="none" stroke="none"/><text fill="#000000" stroke="none" font-family="Arial" font-size="13px" font-style="normal" font-weight="normal" text-decoration="none" x="87.5" y="1149.5">22 : 跳转到初始记录的visit url</text></g></g><g transform="translate(-62,10) scale(1,1)"><rect fill="#fefed2" stroke="none" x="233" y="1153" width="13" height="28"/></g><g transform="translate(-62,10) scale(1,1)"><path fill="none" stroke="#a00000" d="M 233 1153 L 246 1153 L 246 1181 L 233 1181 L 233 1153 Z Z" stroke-miterlimit="10"/></g></g></svg>